<?xml version="1.0" standalone="no"?>
<!DOCTYPE svg PUBLIC "-//W3C//DTD SVG 20010904//EN"
 "http://www.w3.org/TR/2001/REC-SVG-20010904/DTD/svg10.dtd">
<svg version="1.0" xmlns="http://www.w3.org/2000/svg"
 width="1280.000000pt" height="1202.000000pt" viewBox="0 0 1280.000000 1202.000000"
 preserveAspectRatio="xMidYMid meet">
<g transform="translate(0.000000,1202.000000) scale(0.100000,-0.100000)"
fill="#000000" stroke="none">
<path d="M7410 12011 c-14 -5 -50 -14 -80 -21 -215 -49 -377 -218 -457 -477
-26 -84 -27 -98 -27 -288 1 -299 24 -468 111 -805 31 -118 76 -291 100 -385
135 -525 120 -1021 -40 -1340 -96 -192 -252 -335 -440 -403 -123 -45 -211 -55
-399 -49 -316 11 -524 91 -719 275 -210 199 -292 357 -510 982 -89 257 -150
395 -222 503 -126 190 -280 277 -487 277 -108 0 -165 -19 -228 -75 -115 -103
-155 -271 -117 -490 33 -186 128 -357 288 -518 51 -51 176 -161 279 -245 369
-302 466 -438 476 -669 13 -314 -166 -510 -557 -608 -177 -45 -350 -65 -811
-95 -408 -27 -557 -50 -675 -104 -56 -25 -112 -76 -127 -115 -16 -42 -11 -133
10 -181 50 -116 146 -202 457 -407 268 -177 347 -236 448 -332 89 -86 155
-179 194 -277 26 -65 28 -78 27 -214 -1 -173 -20 -256 -89 -396 -125 -254
-403 -426 -840 -518 -154 -32 -349 -59 -650 -91 -443 -46 -578 -67 -745 -111
-187 -51 -321 -139 -377 -248 -39 -74 -45 -210 -13 -284 58 -135 214 -208 465
-219 215 -9 343 25 772 208 425 181 595 239 823 281 159 29 456 31 580 4 325
-71 535 -260 611 -551 17 -65 21 -110 20 -235 0 -256 -41 -434 -151 -655 -87
-175 -169 -285 -329 -445 -146 -146 -267 -244 -551 -447 -426 -305 -554 -407
-711 -565 -248 -249 -384 -511 -429 -823 -17 -123 -13 -312 10 -401 60 -239
215 -380 475 -434 124 -25 168 -25 313 1 307 54 514 178 704 424 205 263 313
515 588 1365 138 426 218 636 325 855 235 484 532 762 919 860 316 80 703 47
961 -83 278 -139 462 -377 583 -752 76 -237 109 -428 172 -985 61 -553 90
-698 175 -871 34 -69 58 -104 100 -142 79 -72 138 -92 274 -92 320 0 561 168
617 429 41 195 -5 338 -188 581 -243 323 -316 471 -364 731 -21 113 -23 439
-5 594 62 521 241 831 567 981 165 77 377 97 759 75 732 -43 1229 -197 1699
-525 50 -35 174 -130 276 -211 366 -290 517 -372 778 -421 110 -20 299 -23
372 -5 212 53 330 195 385 461 20 99 19 147 -5 260 -70 330 -288 501 -790 619
-69 17 -291 58 -495 91 -420 70 -595 105 -776 154 -567 156 -894 423 -1047
856 -115 326 -117 821 -6 1157 98 295 270 517 539 695 195 130 405 218 855
358 449 140 576 195 689 296 118 107 155 243 117 435 -45 229 -190 401 -405
479 -165 60 -393 67 -525 16 -161 -62 -340 -217 -550 -476 -306 -376 -382
-462 -500 -555 -94 -76 -195 -128 -291 -151 -125 -29 -548 -5 -798 47 -631
130 -954 502 -1052 1209 -22 157 -31 575 -16 710 27 234 71 378 214 700 108
244 145 345 176 477 54 232 75 551 47 711 -41 232 -165 428 -341 537 -130 80
-323 125 -415 96z"/>
<path d="M575 8533 c-252 -29 -429 -118 -508 -254 -30 -51 -67 -182 -67 -236
0 -20 11 -73 25 -118 77 -255 313 -418 711 -491 140 -26 586 -27 721 -1 239
45 396 125 461 235 22 39 27 59 27 118 0 61 -5 80 -39 150 -76 153 -292 338
-532 454 -126 62 -283 114 -398 135 -81 14 -314 19 -401 8z"/>
<path d="M10165 1374 c-264 -43 -475 -219 -561 -469 -25 -72 -28 -94 -28 -210
1 -113 4 -140 27 -210 79 -239 254 -396 512 -460 122 -30 149 -31 267 -4 264
60 444 220 525 464 23 70 27 97 27 210 0 117 -3 138 -28 210 -37 108 -77 174
-149 252 -94 101 -201 165 -327 198 -65 17 -211 27 -265 19z"/>
</g>
</svg>
